<svg width="48" height="48" viewBox="0 0 48 48" fill="none" xmlns="http://www.w3.org/2000/svg">
<path fill-rule="evenodd" clip-rule="evenodd" d="M32.7782 0C33.197 2.91548 32.0392 5.7717 30.5119 7.7925C28.8779 9.96006 26.0615 11.6365 23.3327 11.549C22.8346 8.75774 24.11 5.88177 25.6619 3.94846C27.3644 1.81477 30.282 0.177808 32.7782 0ZM40.9756 41.0369C42.3824 38.827 42.9079 37.7122 44 35.2172C36.0572 32.1211 34.7844 20.5467 42.6452 16.1043C40.2475 13.0223 36.8783 11.2358 33.6978 11.2358C31.4062 11.2358 29.8361 11.8487 28.4087 12.406C27.2191 12.8704 26.1287 13.2961 24.8025 13.2961C23.3693 13.2961 22.1002 12.8296 20.7713 12.3413C19.311 11.8046 17.7786 11.2414 15.8771 11.2414C12.308 11.2414 8.50899 13.4767 6.1004 17.2982C2.7147 22.6804 3.29222 32.7985 8.78269 41.4179C10.7451 44.5028 13.3672 47.9686 16.7967 47.9997C18.2197 48.0141 19.1667 47.5788 20.1914 47.1077C21.3643 46.5685 22.6391 45.9824 24.8463 45.9704C27.0665 45.9567 28.3212 46.5499 29.4785 47.0971C30.477 47.5691 31.4029 48.0069 32.8138 47.9912C36.246 47.963 39.0131 44.1217 40.9756 41.0369Z" fill="#1C1C1C"/>
</svg>
