<svg width="48" height="48" viewBox="0 0 48 48" fill="none" xmlns="http://www.w3.org/2000/svg">
<path d="M24.4899 9.28001C29.0885 9.28001 32.1905 11.2267 33.9592 12.8533L40.8708 6.24C36.6259 2.37333 31.1021 0 24.4899 0C14.9116 0 6.63952 5.38667 2.6123 13.2267L10.5307 19.2533C12.5171 13.4667 18.0137 9.28001 24.4899 9.28001Z" fill="#F25022"/>
<path d="M48 24.5333C48 22.56 47.8367 21.12 47.4829 19.6266H24.4897V28.5333H37.9863C37.7142 30.7466 36.2449 34.08 32.9795 36.32L40.7074 42.1866C45.3333 38 48 31.84 48 24.5333Z" fill="#4285F4"/>
<path d="M10.5578 28.7467C10.0408 27.2534 9.7415 25.6534 9.7415 24.0001C9.7415 22.3467 10.0408 20.7467 10.5306 19.2534L2.61225 13.2267C0.952381 16.4801 0 20.1334 0 24.0001C0 27.8667 0.952381 31.5201 2.61225 34.7734L10.5578 28.7467Z" fill="#FBBC05"/>
<path d="M24.4897 48C31.102 48 36.653 45.8667 40.7074 42.1867L32.9795 36.32C30.9115 37.7333 28.136 38.72 24.4897 38.72C18.0136 38.72 12.517 34.5333 10.5578 28.7466L2.6394 34.7733C6.66662 42.6133 14.9115 48 24.4897 48Z" fill="#34A853"/>
</svg>
